<svg width="309" height="91" viewBox="0 0 309 91" fill="none" xmlns="http://www.w3.org/2000/svg">
<path d="M176.362 2.79785V36H168.815V13.585L165.801 36H160.448L157.27 14.0977V36H149.723V2.79785H160.899C161.228 4.79395 161.576 7.14551 161.945 9.85254L163.135 18.3018L165.104 2.79785H176.362ZM194.737 2.79785L199.68 36H190.841L190.41 30.0322H187.313L186.801 36H177.859L182.248 2.79785H194.737ZM190.164 24.1465C189.727 20.3867 189.289 15.7451 188.852 10.2217C187.977 16.5654 187.43 21.207 187.211 24.1465H190.164ZM201.156 2.79785H207.268C211.342 2.79785 214.097 2.95508 215.532 3.26953C216.981 3.58398 218.157 4.39063 219.06 5.68945C219.976 6.97461 220.434 9.03223 220.434 11.8623C220.434 14.4463 220.112 16.1826 219.47 17.0713C218.827 17.96 217.562 18.4932 215.676 18.6709C217.385 19.0947 218.533 19.6621 219.121 20.373C219.709 21.084 220.071 21.7402 220.208 22.3418C220.358 22.9297 220.434 24.5635 220.434 27.2432V36H212.415V24.9668C212.415 23.1895 212.271 22.0889 211.984 21.665C211.711 21.2412 210.979 21.0293 209.79 21.0293V36H201.156V2.79785ZM209.79 8.47852V15.8613C210.761 15.8613 211.438 15.7314 211.82 15.4717C212.217 15.1982 212.415 14.3301 212.415 12.8672V11.042C212.415 9.98926 212.224 9.29883 211.841 8.9707C211.472 8.64258 210.788 8.47852 209.79 8.47852ZM243.956 17.2764H235.322V11.4932C235.322 9.81152 235.227 8.76562 235.035 8.35547C234.857 7.93164 234.454 7.71973 233.825 7.71973C233.114 7.71973 232.663 7.97266 232.472 8.47852C232.28 8.98438 232.185 10.0781 232.185 11.7598V27.1816C232.185 28.7949 232.28 29.8477 232.472 30.3398C232.663 30.832 233.094 31.0781 233.764 31.0781C234.406 31.0781 234.823 30.832 235.015 30.3398C235.22 29.8477 235.322 28.6924 235.322 26.874V22.7109H243.956V24.0029C243.956 27.4346 243.71 29.8682 243.218 31.3037C242.739 32.7393 241.666 33.9971 239.998 35.0771C238.344 36.1572 236.3 36.6973 233.866 36.6973C231.337 36.6973 229.252 36.2393 227.611 35.3232C225.971 34.4072 224.884 33.1426 224.351 31.5293C223.817 29.9023 223.551 27.4619 223.551 24.208V14.5078C223.551 12.1152 223.633 10.3242 223.797 9.13477C223.961 7.93164 224.446 6.77637 225.253 5.66895C226.073 4.56152 227.201 3.69336 228.637 3.06445C230.086 2.42188 231.747 2.10059 233.62 2.10059C236.163 2.10059 238.262 2.59277 239.916 3.57715C241.57 4.56152 242.657 5.79199 243.177 7.26855C243.696 8.73145 243.956 11.0146 243.956 14.1182V17.2764ZM261.962 2.79785L266.904 36H258.065L257.635 30.0322H254.538L254.025 36H245.084L249.473 2.79785H261.962ZM257.389 24.1465C256.951 20.3867 256.514 15.7451 256.076 10.2217C255.201 16.5654 254.654 21.207 254.436 24.1465H257.389ZM286.674 12.8467H278.655V10.3857C278.655 9.2373 278.553 8.50586 278.348 8.19141C278.143 7.87695 277.801 7.71973 277.322 7.71973C276.803 7.71973 276.406 7.93164 276.133 8.35547C275.873 8.7793 275.743 9.42188 275.743 10.2832C275.743 11.3906 275.894 12.2246 276.194 12.7852C276.481 13.3457 277.295 14.0225 278.635 14.8154C282.477 17.0986 284.896 18.9717 285.895 20.4346C286.893 21.8975 287.392 24.2559 287.392 27.5098C287.392 29.875 287.111 31.6182 286.551 32.7393C286.004 33.8604 284.938 34.8037 283.352 35.5693C281.766 36.3213 279.92 36.6973 277.814 36.6973C275.504 36.6973 273.528 36.2598 271.888 35.3848C270.261 34.5098 269.194 33.3955 268.688 32.042C268.183 30.6885 267.93 28.7676 267.93 26.2793V24.1055H275.948V28.1455C275.948 29.3896 276.058 30.1895 276.276 30.5449C276.509 30.9004 276.912 31.0781 277.486 31.0781C278.061 31.0781 278.484 30.8525 278.758 30.4014C279.045 29.9502 279.188 29.2803 279.188 28.3916C279.188 26.4365 278.922 25.1582 278.389 24.5566C277.842 23.9551 276.495 22.9502 274.349 21.542C272.202 20.1201 270.78 19.0879 270.083 18.4453C269.386 17.8027 268.805 16.9141 268.34 15.7793C267.889 14.6445 267.663 13.1953 267.663 11.4316C267.663 8.88867 267.984 7.0293 268.627 5.85352C269.283 4.67773 270.336 3.76172 271.785 3.10547C273.234 2.43555 274.984 2.10059 277.035 2.10059C279.277 2.10059 281.185 2.46289 282.757 3.1875C284.343 3.91211 285.389 4.82812 285.895 5.93555C286.414 7.0293 286.674 8.89551 286.674 11.5342V12.8467ZM149.723 40.7979H164.345V47.4424H158.356V53.7383H163.688V60.0547H158.356V74H149.723V40.7979ZM181.366 40.7979L186.309 74H177.47L177.039 68.0322H173.942L173.43 74H164.488L168.877 40.7979H181.366ZM176.793 62.1465C176.355 58.3867 175.918 53.7451 175.48 48.2217C174.605 54.5654 174.059 59.207 173.84 62.1465H176.793ZM214.425 40.7979V74H206.878V51.585L203.863 74H198.511L195.332 52.0977V74H187.785V40.7979H198.962C199.29 42.7939 199.639 45.1455 200.008 47.8525L201.197 56.3018L203.166 40.7979H214.425ZM237.619 60.2393C237.619 63.5752 237.537 65.9404 237.373 67.335C237.223 68.7158 236.73 69.9805 235.896 71.1289C235.076 72.2773 233.962 73.1592 232.554 73.7744C231.146 74.3896 229.505 74.6973 227.632 74.6973C225.854 74.6973 224.255 74.4102 222.833 73.8359C221.425 73.248 220.29 72.373 219.429 71.2109C218.567 70.0488 218.055 68.7842 217.891 67.417C217.727 66.0498 217.645 63.6572 217.645 60.2393V54.5586C217.645 51.2227 217.72 48.8643 217.87 47.4834C218.034 46.0889 218.526 44.8174 219.347 43.6689C220.181 42.5205 221.302 41.6387 222.71 41.0234C224.118 40.4082 225.759 40.1006 227.632 40.1006C229.409 40.1006 231.002 40.3945 232.41 40.9824C233.832 41.5566 234.974 42.4248 235.835 43.5869C236.696 44.749 237.209 46.0137 237.373 47.3809C237.537 48.748 237.619 51.1406 237.619 54.5586V60.2393ZM228.985 49.3291C228.985 47.7842 228.896 46.7998 228.719 46.376C228.555 45.9385 228.206 45.7197 227.673 45.7197C227.222 45.7197 226.873 45.8975 226.627 46.2529C226.395 46.5947 226.278 47.6201 226.278 49.3291V64.833C226.278 66.7607 226.354 67.9502 226.504 68.4014C226.668 68.8525 227.037 69.0781 227.611 69.0781C228.199 69.0781 228.575 68.8184 228.739 68.2988C228.903 67.7793 228.985 66.542 228.985 64.5869V49.3291ZM259.152 50.8467H251.134V48.3857C251.134 47.2373 251.031 46.5059 250.826 46.1914C250.621 45.877 250.279 45.7197 249.801 45.7197C249.281 45.7197 248.885 45.9316 248.611 46.3555C248.352 46.7793 248.222 47.4219 248.222 48.2832C248.222 49.3906 248.372 50.2246 248.673 50.7852C248.96 51.3457 249.773 52.0225 251.113 52.8154C254.955 55.0986 257.375 56.9717 258.373 58.4346C259.371 59.8975 259.87 62.2559 259.87 65.5098C259.87 67.875 259.59 69.6182 259.029 70.7393C258.482 71.8604 257.416 72.8037 255.83 73.5693C254.244 74.3213 252.398 74.6973 250.293 74.6973C247.982 74.6973 246.007 74.2598 244.366 73.3848C242.739 72.5098 241.673 71.3955 241.167 70.042C240.661 68.6885 240.408 66.7676 240.408 64.2793V62.1055H248.427V66.1455C248.427 67.3896 248.536 68.1895 248.755 68.5449C248.987 68.9004 249.391 69.0781 249.965 69.0781C250.539 69.0781 250.963 68.8525 251.236 68.4014C251.523 67.9502 251.667 67.2803 251.667 66.3916C251.667 64.4365 251.4 63.1582 250.867 62.5566C250.32 61.9551 248.974 60.9502 246.827 59.542C244.681 58.1201 243.259 57.0879 242.562 56.4453C241.864 55.8027 241.283 54.9141 240.818 53.7793C240.367 52.6445 240.142 51.1953 240.142 49.4316C240.142 46.8887 240.463 45.0293 241.105 43.8535C241.762 42.6777 242.814 41.7617 244.264 41.1055C245.713 40.4355 247.463 40.1006 249.514 40.1006C251.756 40.1006 253.663 40.4629 255.235 41.1875C256.821 41.9121 257.867 42.8281 258.373 43.9355C258.893 45.0293 259.152 46.8955 259.152 49.5342V50.8467ZM277.507 40.7979L282.449 74H273.61L273.18 68.0322H270.083L269.57 74H260.629L265.018 40.7979H277.507ZM272.934 62.1465C272.496 58.3867 272.059 53.7451 271.621 48.2217C270.746 54.5654 270.199 59.207 269.98 62.1465H272.934ZM302.219 50.8467H294.2V48.3857C294.2 47.2373 294.098 46.5059 293.893 46.1914C293.688 45.877 293.346 45.7197 292.867 45.7197C292.348 45.7197 291.951 45.9316 291.678 46.3555C291.418 46.7793 291.288 47.4219 291.288 48.2832C291.288 49.3906 291.438 50.2246 291.739 50.7852C292.026 51.3457 292.84 52.0225 294.18 52.8154C298.021 55.0986 300.441 56.9717 301.439 58.4346C302.438 59.8975 302.937 62.2559 302.937 65.5098C302.937 67.875 302.656 69.6182 302.096 70.7393C301.549 71.8604 300.482 72.8037 298.896 73.5693C297.311 74.3213 295.465 74.6973 293.359 74.6973C291.049 74.6973 289.073 74.2598 287.433 73.3848C285.806 72.5098 284.739 71.3955 284.233 70.042C283.728 68.6885 283.475 66.7676 283.475 64.2793V62.1055H291.493V66.1455C291.493 67.3896 291.603 68.1895 291.821 68.5449C292.054 68.9004 292.457 69.0781 293.031 69.0781C293.605 69.0781 294.029 68.8525 294.303 68.4014C294.59 67.9502 294.733 67.2803 294.733 66.3916C294.733 64.4365 294.467 63.1582 293.934 62.5566C293.387 61.9551 292.04 60.9502 289.894 59.542C287.747 58.1201 286.325 57.0879 285.628 56.4453C284.931 55.8027 284.35 54.9141 283.885 53.7793C283.434 52.6445 283.208 51.1953 283.208 49.4316C283.208 46.8887 283.529 45.0293 284.172 43.8535C284.828 42.6777 285.881 41.7617 287.33 41.1055C288.779 40.4355 290.529 40.1006 292.58 40.1006C294.822 40.1006 296.729 40.4629 298.302 41.1875C299.888 41.9121 300.934 42.8281 301.439 43.9355C301.959 45.0293 302.219 46.8955 302.219 49.5342V50.8467Z" fill="white"/>
<path d="M149.476 88V80.584C149.476 80.128 149.604 79.76 149.86 79.48C150.124 79.2 150.496 79.06 150.976 79.06C151.2 79.06 151.42 79.096 151.636 79.168C151.86 79.24 152.044 79.352 152.188 79.504L152.02 79.672C151.892 79.544 151.736 79.448 151.552 79.384C151.376 79.32 151.188 79.288 150.988 79.288C150.572 79.288 150.256 79.404 150.04 79.636C149.824 79.868 149.716 80.204 149.716 80.644V81.832V81.964V88H149.476ZM148.276 82.024V81.796H151.816V82.024H148.276ZM154.993 88.036C154.393 88.036 153.861 87.904 153.397 87.64C152.933 87.368 152.565 86.996 152.293 86.524C152.029 86.044 151.897 85.5 151.897 84.892C151.897 84.276 152.021 83.736 152.269 83.272C152.517 82.8 152.857 82.432 153.289 82.168C153.729 81.896 154.221 81.76 154.765 81.76C155.309 81.76 155.797 81.892 156.229 82.156C156.669 82.412 157.013 82.772 157.261 83.236C157.517 83.7 157.645 84.232 157.645 84.832C157.645 84.84 157.645 84.848 157.645 84.856C157.645 84.864 157.645 84.876 157.645 84.892H152.029V84.664H157.513L157.417 84.844C157.417 84.3 157.301 83.812 157.069 83.38C156.837 82.948 156.521 82.608 156.121 82.36C155.729 82.112 155.277 81.988 154.765 81.988C154.261 81.988 153.809 82.112 153.409 82.36C153.009 82.608 152.693 82.948 152.461 83.38C152.237 83.812 152.125 84.3 152.125 84.844V84.892C152.125 85.46 152.249 85.964 152.497 86.404C152.745 86.844 153.085 87.188 153.517 87.436C153.949 87.684 154.441 87.808 154.993 87.808C155.409 87.808 155.801 87.728 156.169 87.568C156.545 87.408 156.857 87.168 157.105 86.848L157.273 87.016C157.001 87.352 156.665 87.608 156.265 87.784C155.865 87.952 155.441 88.036 154.993 88.036ZM159.312 88V81.796H159.552V83.512L159.528 83.476C159.696 82.932 159.988 82.512 160.404 82.216C160.828 81.912 161.356 81.76 161.988 81.76V82C161.98 82 161.968 82 161.952 82C161.944 82 161.932 82 161.916 82C161.172 82 160.592 82.24 160.176 82.72C159.76 83.192 159.552 83.84 159.552 84.664V88H159.312ZM163.429 88V81.796H163.669V83.512L163.645 83.476C163.813 82.932 164.105 82.512 164.521 82.216C164.945 81.912 165.473 81.76 166.105 81.76V82C166.097 82 166.085 82 166.069 82C166.061 82 166.049 82 166.033 82C165.289 82 164.709 82.24 164.293 82.72C163.877 83.192 163.669 83.84 163.669 84.664V88H163.429ZM169.767 88.036C169.191 88.036 168.675 87.904 168.219 87.64C167.771 87.368 167.415 86.996 167.151 86.524C166.887 86.044 166.755 85.5 166.755 84.892C166.755 84.276 166.887 83.736 167.151 83.272C167.415 82.8 167.771 82.432 168.219 82.168C168.675 81.896 169.191 81.76 169.767 81.76C170.343 81.76 170.859 81.896 171.315 82.168C171.771 82.432 172.127 82.8 172.383 83.272C172.647 83.736 172.779 84.276 172.779 84.892C172.779 85.5 172.647 86.044 172.383 86.524C172.127 86.996 171.771 87.368 171.315 87.64C170.859 87.904 170.343 88.036 169.767 88.036ZM169.767 87.808C170.295 87.808 170.767 87.684 171.183 87.436C171.607 87.188 171.939 86.844 172.179 86.404C172.419 85.964 172.539 85.46 172.539 84.892C172.539 84.316 172.419 83.812 172.179 83.38C171.939 82.94 171.607 82.6 171.183 82.36C170.767 82.112 170.295 81.988 169.767 81.988C169.239 81.988 168.767 82.112 168.351 82.36C167.935 82.6 167.603 82.94 167.355 83.38C167.115 83.812 166.995 84.316 166.995 84.892C166.995 85.46 167.115 85.964 167.355 86.404C167.603 86.844 167.935 87.188 168.351 87.436C168.767 87.684 169.239 87.808 169.767 87.808ZM179.455 88.036C178.855 88.036 178.323 87.904 177.859 87.64C177.395 87.368 177.027 86.996 176.755 86.524C176.491 86.044 176.359 85.5 176.359 84.892C176.359 84.276 176.483 83.736 176.731 83.272C176.979 82.8 177.319 82.432 177.751 82.168C178.191 81.896 178.683 81.76 179.227 81.76C179.771 81.76 180.259 81.892 180.691 82.156C181.131 82.412 181.475 82.772 181.723 83.236C181.979 83.7 182.107 84.232 182.107 84.832C182.107 84.84 182.107 84.848 182.107 84.856C182.107 84.864 182.107 84.876 182.107 84.892H176.491V84.664H181.975L181.879 84.844C181.879 84.3 181.763 83.812 181.531 83.38C181.299 82.948 180.983 82.608 180.583 82.36C180.191 82.112 179.739 81.988 179.227 81.988C178.723 81.988 178.271 82.112 177.871 82.36C177.471 82.608 177.155 82.948 176.923 83.38C176.699 83.812 176.587 84.3 176.587 84.844V84.892C176.587 85.46 176.711 85.964 176.959 86.404C177.207 86.844 177.547 87.188 177.979 87.436C178.411 87.684 178.903 87.808 179.455 87.808C179.871 87.808 180.263 87.728 180.631 87.568C181.007 87.408 181.319 87.168 181.567 86.848L181.735 87.016C181.463 87.352 181.127 87.608 180.727 87.784C180.327 87.952 179.903 88.036 179.455 88.036ZM190.374 88V86.524V86.32V83.944C190.374 83.296 190.206 82.808 189.87 82.48C189.534 82.152 189.046 81.988 188.406 81.988C187.942 81.988 187.518 82.068 187.134 82.228C186.75 82.388 186.422 82.596 186.15 82.852L185.982 82.684C186.278 82.404 186.638 82.18 187.062 82.012C187.486 81.844 187.93 81.76 188.394 81.76C189.114 81.76 189.662 81.944 190.038 82.312C190.422 82.68 190.614 83.22 190.614 83.932V88H190.374ZM188.01 88.036C187.546 88.036 187.15 87.964 186.822 87.82C186.494 87.676 186.242 87.472 186.066 87.208C185.898 86.944 185.814 86.64 185.814 86.296C185.814 86 185.882 85.728 186.018 85.48C186.162 85.224 186.394 85.02 186.714 84.868C187.034 84.708 187.47 84.628 188.022 84.628H190.506V84.856H188.01C187.306 84.856 186.802 84.992 186.498 85.264C186.202 85.528 186.054 85.868 186.054 86.284C186.054 86.748 186.226 87.12 186.57 87.4C186.914 87.672 187.394 87.808 188.01 87.808C188.61 87.808 189.102 87.672 189.486 87.4C189.878 87.12 190.174 86.728 190.374 86.224L190.494 86.38C190.326 86.876 190.03 87.276 189.606 87.58C189.19 87.884 188.658 88.036 188.01 88.036ZM195.261 88.036C194.677 88.036 194.153 87.904 193.689 87.64C193.233 87.368 192.873 86.996 192.609 86.524C192.345 86.052 192.213 85.508 192.213 84.892C192.213 84.276 192.345 83.732 192.609 83.26C192.873 82.788 193.233 82.42 193.689 82.156C194.153 81.892 194.677 81.76 195.261 81.76C195.709 81.76 196.125 81.844 196.509 82.012C196.901 82.18 197.229 82.432 197.493 82.768L197.325 82.948C197.085 82.62 196.785 82.38 196.425 82.228C196.065 82.068 195.677 81.988 195.261 81.988C194.725 81.988 194.245 82.112 193.821 82.36C193.397 82.6 193.061 82.94 192.813 83.38C192.573 83.812 192.453 84.316 192.453 84.892C192.453 85.468 192.573 85.976 192.813 86.416C193.061 86.848 193.397 87.188 193.821 87.436C194.245 87.684 194.725 87.808 195.261 87.808C195.677 87.808 196.065 87.728 196.425 87.568C196.785 87.408 197.085 87.168 197.325 86.848L197.493 87.028C197.229 87.364 196.901 87.616 196.509 87.784C196.125 87.952 195.709 88.036 195.261 88.036ZM194.865 90.556C194.697 90.556 194.541 90.528 194.397 90.472C194.253 90.424 194.113 90.344 193.977 90.232L194.109 90.052C194.205 90.14 194.317 90.208 194.445 90.256C194.581 90.304 194.717 90.328 194.853 90.328C195.101 90.328 195.305 90.264 195.465 90.136C195.633 90.016 195.717 89.84 195.717 89.608C195.717 89.4 195.641 89.228 195.489 89.092C195.345 88.956 195.137 88.888 194.865 88.888H194.673L194.937 87.94H195.165L194.961 88.672C195.265 88.688 195.505 88.78 195.681 88.948C195.865 89.116 195.957 89.336 195.957 89.608C195.957 89.896 195.853 90.124 195.645 90.292C195.437 90.468 195.177 90.556 194.865 90.556ZM201.287 88.036C200.711 88.036 200.195 87.904 199.739 87.64C199.291 87.368 198.935 86.996 198.671 86.524C198.407 86.044 198.275 85.5 198.275 84.892C198.275 84.276 198.407 83.736 198.671 83.272C198.935 82.8 199.291 82.432 199.739 82.168C200.195 81.896 200.711 81.76 201.287 81.76C201.863 81.76 202.379 81.896 202.835 82.168C203.291 82.432 203.647 82.8 203.903 83.272C204.167 83.736 204.299 84.276 204.299 84.892C204.299 85.5 204.167 86.044 203.903 86.524C203.647 86.996 203.291 87.368 202.835 87.64C202.379 87.904 201.863 88.036 201.287 88.036ZM201.287 87.808C201.815 87.808 202.287 87.684 202.703 87.436C203.127 87.188 203.459 86.844 203.699 86.404C203.939 85.964 204.059 85.46 204.059 84.892C204.059 84.316 203.939 83.812 203.699 83.38C203.459 82.94 203.127 82.6 202.703 82.36C202.287 82.112 201.815 81.988 201.287 81.988C200.759 81.988 200.287 82.112 199.871 82.36C199.455 82.6 199.123 82.94 198.875 83.38C198.635 83.812 198.515 84.316 198.515 84.892C198.515 85.46 198.635 85.964 198.875 86.404C199.123 86.844 199.455 87.188 199.871 87.436C200.287 87.684 200.759 87.808 201.287 87.808ZM211.623 88.036C211.055 88.036 210.547 87.904 210.099 87.64C209.651 87.368 209.295 86.996 209.031 86.524C208.775 86.052 208.647 85.512 208.647 84.904C208.647 84.288 208.775 83.744 209.031 83.272C209.295 82.8 209.651 82.432 210.099 82.168C210.547 81.896 211.055 81.76 211.623 81.76C212.191 81.76 212.703 81.896 213.159 82.168C213.615 82.432 213.975 82.8 214.239 83.272C214.503 83.744 214.635 84.288 214.635 84.904C214.635 85.512 214.503 86.052 214.239 86.524C213.975 86.996 213.615 87.368 213.159 87.64C212.703 87.904 212.191 88.036 211.623 88.036ZM208.611 90.328V81.796H208.851V84.076L208.731 84.916L208.851 85.756V90.328H208.611ZM211.623 87.808C212.151 87.808 212.623 87.688 213.039 87.448C213.463 87.2 213.795 86.856 214.035 86.416C214.275 85.976 214.395 85.472 214.395 84.904C214.395 84.328 214.275 83.824 214.035 83.392C213.795 82.952 213.463 82.608 213.039 82.36C212.623 82.112 212.151 81.988 211.623 81.988C211.095 81.988 210.619 82.112 210.195 82.36C209.779 82.608 209.451 82.952 209.211 83.392C208.971 83.824 208.851 84.328 208.851 84.904C208.851 85.472 208.971 85.976 209.211 86.416C209.451 86.856 209.779 87.2 210.195 87.448C210.619 87.688 211.095 87.808 211.623 87.808ZM220.262 88V86.524V86.32V83.944C220.262 83.296 220.094 82.808 219.758 82.48C219.422 82.152 218.934 81.988 218.294 81.988C217.83 81.988 217.406 82.068 217.022 82.228C216.638 82.388 216.31 82.596 216.038 82.852L215.87 82.684C216.166 82.404 216.526 82.18 216.95 82.012C217.374 81.844 217.818 81.76 218.282 81.76C219.002 81.76 219.55 81.944 219.926 82.312C220.31 82.68 220.502 83.22 220.502 83.932V88H220.262ZM217.898 88.036C217.434 88.036 217.038 87.964 216.71 87.82C216.382 87.676 216.13 87.472 215.954 87.208C215.786 86.944 215.702 86.64 215.702 86.296C215.702 86 215.77 85.728 215.906 85.48C216.05 85.224 216.282 85.02 216.602 84.868C216.922 84.708 217.358 84.628 217.91 84.628H220.394V84.856H217.898C217.194 84.856 216.69 84.992 216.386 85.264C216.09 85.528 215.942 85.868 215.942 86.284C215.942 86.748 216.114 87.12 216.458 87.4C216.802 87.672 217.282 87.808 217.898 87.808C218.498 87.808 218.99 87.672 219.374 87.4C219.766 87.12 220.062 86.728 220.262 86.224L220.382 86.38C220.214 86.876 219.918 87.276 219.494 87.58C219.078 87.884 218.546 88.036 217.898 88.036ZM222.832 88V81.796H223.072V83.512L223.048 83.476C223.216 82.932 223.508 82.512 223.924 82.216C224.348 81.912 224.876 81.76 225.508 81.76V82C225.5 82 225.488 82 225.472 82C225.464 82 225.452 82 225.436 82C224.692 82 224.112 82.24 223.696 82.72C223.28 83.192 223.072 83.84 223.072 84.664V88H222.832ZM230.428 88V86.524V86.32V83.944C230.428 83.296 230.26 82.808 229.924 82.48C229.588 82.152 229.1 81.988 228.46 81.988C227.996 81.988 227.572 82.068 227.188 82.228C226.804 82.388 226.476 82.596 226.204 82.852L226.036 82.684C226.332 82.404 226.692 82.18 227.116 82.012C227.54 81.844 227.984 81.76 228.448 81.76C229.168 81.76 229.716 81.944 230.092 82.312C230.476 82.68 230.668 83.22 230.668 83.932V88H230.428ZM228.064 88.036C227.6 88.036 227.204 87.964 226.876 87.82C226.548 87.676 226.296 87.472 226.12 87.208C225.952 86.944 225.868 86.64 225.868 86.296C225.868 86 225.936 85.728 226.072 85.48C226.216 85.224 226.448 85.02 226.768 84.868C227.088 84.708 227.524 84.628 228.076 84.628H230.56V84.856H228.064C227.36 84.856 226.856 84.992 226.552 85.264C226.256 85.528 226.108 85.868 226.108 86.284C226.108 86.748 226.28 87.12 226.624 87.4C226.968 87.672 227.448 87.808 228.064 87.808C228.664 87.808 229.156 87.672 229.54 87.4C229.932 87.12 230.228 86.728 230.428 86.224L230.548 86.38C230.38 86.876 230.084 87.276 229.66 87.58C229.244 87.884 228.712 88.036 228.064 88.036ZM237.235 88.036C236.747 88.036 236.375 87.896 236.119 87.616C235.863 87.336 235.735 86.968 235.735 86.512V80.44H235.975V86.452C235.975 86.892 236.083 87.228 236.299 87.46C236.515 87.692 236.831 87.808 237.247 87.808C237.663 87.808 238.007 87.68 238.279 87.424L238.447 87.592C238.303 87.744 238.119 87.856 237.895 87.928C237.679 88 237.459 88.036 237.235 88.036ZM234.535 82.024V81.796H238.075V82.024H234.535ZM241.977 88.036C241.401 88.036 240.885 87.904 240.429 87.64C239.981 87.368 239.625 86.996 239.361 86.524C239.097 86.044 238.965 85.5 238.965 84.892C238.965 84.276 239.097 83.736 239.361 83.272C239.625 82.8 239.981 82.432 240.429 82.168C240.885 81.896 241.401 81.76 241.977 81.76C242.553 81.76 243.069 81.896 243.525 82.168C243.981 82.432 244.337 82.8 244.593 83.272C244.857 83.736 244.989 84.276 244.989 84.892C244.989 85.5 244.857 86.044 244.593 86.524C244.337 86.996 243.981 87.368 243.525 87.64C243.069 87.904 242.553 88.036 241.977 88.036ZM241.977 87.808C242.505 87.808 242.977 87.684 243.393 87.436C243.817 87.188 244.149 86.844 244.389 86.404C244.629 85.964 244.749 85.46 244.749 84.892C244.749 84.316 244.629 83.812 244.389 83.38C244.149 82.94 243.817 82.6 243.393 82.36C242.977 82.112 242.505 81.988 241.977 81.988C241.449 81.988 240.977 82.112 240.561 82.36C240.145 82.6 239.813 82.94 239.565 83.38C239.325 83.812 239.205 84.316 239.205 84.892C239.205 85.46 239.325 85.964 239.565 86.404C239.813 86.844 240.145 87.188 240.561 87.436C240.977 87.684 241.449 87.808 241.977 87.808ZM248.941 88.036C248.373 88.036 247.861 87.904 247.405 87.64C246.949 87.368 246.589 86.996 246.325 86.524C246.061 86.044 245.929 85.5 245.929 84.892C245.929 84.276 246.061 83.736 246.325 83.272C246.589 82.8 246.949 82.432 247.405 82.168C247.861 81.896 248.373 81.76 248.941 81.76C249.509 81.76 250.017 81.896 250.465 82.168C250.913 82.432 251.265 82.8 251.521 83.272C251.785 83.736 251.917 84.276 251.917 84.892C251.917 85.5 251.785 86.044 251.521 86.524C251.265 86.996 250.913 87.368 250.465 87.64C250.017 87.904 249.509 88.036 248.941 88.036ZM248.941 87.808C249.469 87.808 249.941 87.684 250.357 87.436C250.781 87.188 251.113 86.844 251.353 86.404C251.593 85.964 251.713 85.46 251.713 84.892C251.713 84.316 251.593 83.812 251.353 83.38C251.113 82.94 250.781 82.6 250.357 82.36C249.941 82.112 249.469 81.988 248.941 81.988C248.413 81.988 247.941 82.112 247.525 82.36C247.109 82.6 246.777 82.94 246.529 83.38C246.289 83.812 246.169 84.316 246.169 84.892C246.169 85.46 246.289 85.964 246.529 86.404C246.777 86.844 247.109 87.188 247.525 87.436C247.941 87.684 248.413 87.808 248.941 87.808ZM251.713 88V85.72L251.833 84.88L251.713 84.04V79.096H251.953V88H251.713ZM256.632 88.036C256.056 88.036 255.54 87.904 255.084 87.64C254.636 87.368 254.28 86.996 254.016 86.524C253.752 86.044 253.62 85.5 253.62 84.892C253.62 84.276 253.752 83.736 254.016 83.272C254.28 82.8 254.636 82.432 255.084 82.168C255.54 81.896 256.056 81.76 256.632 81.76C257.208 81.76 257.724 81.896 258.18 82.168C258.636 82.432 258.992 82.8 259.248 83.272C259.512 83.736 259.644 84.276 259.644 84.892C259.644 85.5 259.512 86.044 259.248 86.524C258.992 86.996 258.636 87.368 258.18 87.64C257.724 87.904 257.208 88.036 256.632 88.036ZM256.632 87.808C257.16 87.808 257.632 87.684 258.048 87.436C258.472 87.188 258.804 86.844 259.044 86.404C259.284 85.964 259.404 85.46 259.404 84.892C259.404 84.316 259.284 83.812 259.044 83.38C258.804 82.94 258.472 82.6 258.048 82.36C257.632 82.112 257.16 81.988 256.632 81.988C256.104 81.988 255.632 82.112 255.216 82.36C254.8 82.6 254.468 82.94 254.22 83.38C253.98 83.812 253.86 84.316 253.86 84.892C253.86 85.46 253.98 85.964 254.22 86.404C254.468 86.844 254.8 87.188 255.216 87.436C255.632 87.684 256.104 87.808 256.632 87.808ZM262.744 88.036C262.24 88.036 261.768 87.956 261.328 87.796C260.888 87.636 260.552 87.432 260.32 87.184L260.464 86.992C260.688 87.208 261 87.4 261.4 87.568C261.8 87.728 262.248 87.808 262.744 87.808C263.48 87.808 264.008 87.68 264.328 87.424C264.648 87.168 264.808 86.836 264.808 86.428C264.808 86.132 264.732 85.9 264.58 85.732C264.428 85.556 264.224 85.424 263.968 85.336C263.72 85.24 263.444 85.164 263.14 85.108C262.836 85.052 262.532 84.992 262.228 84.928C261.924 84.864 261.644 84.776 261.388 84.664C261.14 84.544 260.94 84.384 260.788 84.184C260.636 83.976 260.56 83.7 260.56 83.356C260.56 83.076 260.636 82.816 260.788 82.576C260.94 82.336 261.176 82.14 261.496 81.988C261.824 81.836 262.244 81.76 262.756 81.76C263.14 81.76 263.52 81.82 263.896 81.94C264.272 82.052 264.576 82.204 264.808 82.396L264.664 82.588C264.416 82.388 264.124 82.24 263.788 82.144C263.452 82.04 263.108 81.988 262.756 81.988C262.076 81.988 261.58 82.12 261.268 82.384C260.964 82.648 260.812 82.972 260.812 83.356C260.812 83.66 260.888 83.904 261.04 84.088C261.192 84.264 261.392 84.4 261.64 84.496C261.896 84.592 262.176 84.668 262.48 84.724C262.784 84.78 263.084 84.84 263.38 84.904C263.684 84.968 263.96 85.056 264.208 85.168C264.464 85.28 264.668 85.436 264.82 85.636C264.972 85.828 265.048 86.092 265.048 86.428C265.048 86.74 264.964 87.02 264.796 87.268C264.628 87.508 264.372 87.696 264.028 87.832C263.692 87.968 263.264 88.036 262.744 88.036ZM271.431 88.036C270.855 88.036 270.339 87.904 269.883 87.64C269.435 87.368 269.079 86.996 268.815 86.524C268.551 86.044 268.419 85.5 268.419 84.892C268.419 84.276 268.551 83.736 268.815 83.272C269.079 82.8 269.435 82.432 269.883 82.168C270.339 81.896 270.855 81.76 271.431 81.76C272.007 81.76 272.523 81.896 272.979 82.168C273.435 82.432 273.791 82.8 274.047 83.272C274.311 83.736 274.443 84.276 274.443 84.892C274.443 85.5 274.311 86.044 274.047 86.524C273.791 86.996 273.435 87.368 272.979 87.64C272.523 87.904 272.007 88.036 271.431 88.036ZM271.431 87.808C271.959 87.808 272.431 87.684 272.847 87.436C273.271 87.188 273.603 86.844 273.843 86.404C274.083 85.964 274.203 85.46 274.203 84.892C274.203 84.316 274.083 83.812 273.843 83.38C273.603 82.94 273.271 82.6 272.847 82.36C272.431 82.112 271.959 81.988 271.431 81.988C270.903 81.988 270.431 82.112 270.015 82.36C269.599 82.6 269.267 82.94 269.019 83.38C268.779 83.812 268.659 84.316 268.659 84.892C268.659 85.46 268.779 85.964 269.019 86.404C269.267 86.844 269.599 87.188 270.015 87.436C270.431 87.684 270.903 87.808 271.431 87.808ZM277.543 88.036C277.039 88.036 276.567 87.956 276.127 87.796C275.687 87.636 275.351 87.432 275.119 87.184L275.263 86.992C275.487 87.208 275.799 87.4 276.199 87.568C276.599 87.728 277.047 87.808 277.543 87.808C278.279 87.808 278.807 87.68 279.127 87.424C279.447 87.168 279.607 86.836 279.607 86.428C279.607 86.132 279.531 85.9 279.379 85.732C279.227 85.556 279.023 85.424 278.767 85.336C278.519 85.24 278.243 85.164 277.939 85.108C277.635 85.052 277.331 84.992 277.027 84.928C276.723 84.864 276.443 84.776 276.187 84.664C275.939 84.544 275.739 84.384 275.587 84.184C275.435 83.976 275.359 83.7 275.359 83.356C275.359 83.076 275.435 82.816 275.587 82.576C275.739 82.336 275.975 82.14 276.295 81.988C276.623 81.836 277.043 81.76 277.555 81.76C277.939 81.76 278.319 81.82 278.695 81.94C279.071 82.052 279.375 82.204 279.607 82.396L279.463 82.588C279.215 82.388 278.923 82.24 278.587 82.144C278.251 82.04 277.907 81.988 277.555 81.988C276.875 81.988 276.379 82.12 276.067 82.384C275.763 82.648 275.611 82.972 275.611 83.356C275.611 83.66 275.687 83.904 275.839 84.088C275.991 84.264 276.191 84.4 276.439 84.496C276.695 84.592 276.975 84.668 277.279 84.724C277.583 84.78 277.883 84.84 278.179 84.904C278.483 84.968 278.759 85.056 279.007 85.168C279.263 85.28 279.467 85.436 279.619 85.636C279.771 85.828 279.847 86.092 279.847 86.428C279.847 86.74 279.763 87.02 279.595 87.268C279.427 87.508 279.171 87.696 278.827 87.832C278.491 87.968 278.063 88.036 277.543 88.036ZM284.046 88V80.584C284.046 80.128 284.174 79.76 284.43 79.48C284.694 79.2 285.066 79.06 285.546 79.06C285.77 79.06 285.99 79.096 286.206 79.168C286.43 79.24 286.614 79.352 286.758 79.504L286.59 79.672C286.462 79.544 286.306 79.448 286.122 79.384C285.946 79.32 285.758 79.288 285.558 79.288C285.142 79.288 284.826 79.404 284.61 79.636C284.394 79.868 284.286 80.204 284.286 80.644V81.832V81.964V88H284.046ZM282.846 82.024V81.796H286.386V82.024H282.846ZM287.682 88V81.796H287.922V88H287.682ZM287.802 80.08C287.722 80.08 287.65 80.048 287.586 79.984C287.522 79.92 287.49 79.848 287.49 79.768C287.49 79.68 287.522 79.608 287.586 79.552C287.65 79.488 287.722 79.456 287.802 79.456C287.89 79.456 287.962 79.488 288.018 79.552C288.082 79.608 288.114 79.68 288.114 79.768C288.114 79.848 288.082 79.92 288.018 79.984C287.962 80.048 287.89 80.08 287.802 80.08ZM293.16 81.76C293.672 81.76 294.112 81.86 294.48 82.06C294.848 82.252 295.132 82.54 295.332 82.924C295.54 83.308 295.644 83.78 295.644 84.34V88H295.404V84.34C295.404 83.572 295.208 82.988 294.816 82.588C294.424 82.188 293.876 81.988 293.172 81.988C292.628 81.988 292.16 82.1 291.768 82.324C291.376 82.54 291.076 82.848 290.868 83.248C290.66 83.64 290.556 84.1 290.556 84.628V88H290.316V81.796H290.556V83.56L290.532 83.524C290.716 82.98 291.032 82.552 291.48 82.24C291.928 81.92 292.488 81.76 293.16 81.76ZM299.4 88.036C298.896 88.036 298.424 87.956 297.984 87.796C297.544 87.636 297.208 87.432 296.976 87.184L297.12 86.992C297.344 87.208 297.656 87.4 298.056 87.568C298.456 87.728 298.904 87.808 299.4 87.808C300.136 87.808 300.664 87.68 300.984 87.424C301.304 87.168 301.464 86.836 301.464 86.428C301.464 86.132 301.388 85.9 301.236 85.732C301.084 85.556 300.88 85.424 300.624 85.336C300.376 85.24 300.1 85.164 299.796 85.108C299.492 85.052 299.188 84.992 298.884 84.928C298.58 84.864 298.3 84.776 298.044 84.664C297.796 84.544 297.596 84.384 297.444 84.184C297.292 83.976 297.216 83.7 297.216 83.356C297.216 83.076 297.292 82.816 297.444 82.576C297.596 82.336 297.832 82.14 298.152 81.988C298.48 81.836 298.9 81.76 299.412 81.76C299.796 81.76 300.176 81.82 300.552 81.94C300.928 82.052 301.232 82.204 301.464 82.396L301.32 82.588C301.072 82.388 300.78 82.24 300.444 82.144C300.108 82.04 299.764 81.988 299.412 81.988C298.732 81.988 298.236 82.12 297.924 82.384C297.62 82.648 297.468 82.972 297.468 83.356C297.468 83.66 297.544 83.904 297.696 84.088C297.848 84.264 298.048 84.4 298.296 84.496C298.552 84.592 298.832 84.668 299.136 84.724C299.44 84.78 299.74 84.84 300.036 84.904C300.34 84.968 300.616 85.056 300.864 85.168C301.12 85.28 301.324 85.436 301.476 85.636C301.628 85.828 301.704 86.092 301.704 86.428C301.704 86.74 301.62 87.02 301.452 87.268C301.284 87.508 301.028 87.696 300.684 87.832C300.348 87.968 299.92 88.036 299.4 88.036Z" fill="white"/>
<path fill-rule="evenodd" clip-rule="evenodd" d="M47.9147 69.1182C52.7076 69.8703 61.1658 72.0314 66.7108 73.9111C76.2976 77.1067 77.7066 77.295 98.3833 78.5168C110.318 79.2678 123.288 80.4896 127.142 81.4299C130.995 82.2762 135.882 83.2155 137.95 83.591C140.863 84.0617 141.71 84.5314 141.71 85.9414C141.71 87.727 140.205 87.8212 71.5036 88.0084C23.761 88.1025 1.01726 87.9143 0.640705 87.2563C0.0768962 86.4111 -0.204497 75.9791 0.171035 71.6559C0.265174 70.9979 1.67521 70.5283 3.83631 70.5283C5.71601 70.4341 10.8855 69.8703 15.3028 69.2124C26.1104 67.4268 37.4827 67.4268 47.9147 69.1182Z" fill="#4A6B9A"/>
<path fill-rule="evenodd" clip-rule="evenodd" d="M46.7871 61.2239C51.4859 61.7877 59.0988 63.4791 63.7035 64.9833C75.3572 68.8358 79.2108 69.4938 97.0675 70.5283C119.247 71.8431 140.769 76.4488 140.769 79.9258C140.769 80.6779 140.111 81.1475 139.359 80.9603C138.608 80.772 135.224 79.8316 131.841 78.8923C123.288 76.4488 108.627 74.4749 90.489 73.3473C81.9367 72.8776 72.9137 71.8431 70.2819 71.0921C67.7453 70.34 62.5758 68.8358 58.9106 67.8023C55.1511 66.7689 48.6668 65.5471 44.3436 65.1705C35.6972 64.3253 14.739 65.1705 9.00575 66.5806C0.359314 68.7417 0.265175 68.8358 0.265175 66.9561C0.265175 65.453 1.86349 64.8891 11.3551 63.1036C27.4263 60.1894 34.7568 59.7197 46.7871 61.2239Z" fill="#4A6B9A"/>
<path fill-rule="evenodd" clip-rule="evenodd" d="M50.5465 54.0806C53.1773 54.363 59.944 56.0544 65.5832 57.84C74.1355 60.5659 78.6469 61.4111 91.4283 62.5398C111.823 64.3253 118.495 65.2647 128.082 68.0848C139.359 71.3735 141.239 72.1256 141.239 73.817C141.239 75.6026 140.769 75.6026 134.097 73.2532C123.853 69.682 112.669 67.7082 94.0601 66.2982C78.1773 64.9833 73.7599 64.3253 63.9859 61.4111C53.5539 58.4038 51.0162 58.0283 38.3279 57.6517C26.2045 57.2762 22.9148 57.4645 14.8321 59.25C-0.110355 62.5398 0.0768987 62.5398 0.453454 60.6601C0.640708 59.3442 2.89697 58.4038 9.6637 56.8065C24.6072 53.1413 33.7233 52.4833 50.5465 54.0806Z" fill="#4A6B9A"/>
<path fill-rule="evenodd" clip-rule="evenodd" d="M56.1846 47.5021C58.8164 48.1601 64.5497 49.7574 68.967 51.0733C73.3834 52.3892 82.0298 53.8933 88.2327 54.5513C94.3415 55.1151 102.801 56.0544 106.936 56.5241C123.665 58.7804 143.965 66.2051 141.052 69.1182C140.863 69.3065 136.916 68.0848 132.311 66.2982C121.221 62.1632 107.405 59.5314 90.489 58.3097C75.7338 57.2762 74.7934 57.0879 61.3541 53.0471C53.0832 50.5095 51.3917 50.3212 37.3886 50.4153C22.4451 50.5095 17.6522 51.2615 2.23902 56.0544C0.453452 56.6182 0.171036 56.43 0.453452 54.9268C0.923122 52.295 20.0957 46.8442 32.6888 45.8107C38.6103 45.34 51.6741 46.2804 56.1846 47.5021Z" fill="#4A6B9A"/>
<path fill-rule="evenodd" clip-rule="evenodd" d="M51.0162 39.044C55.9032 39.795 62.4817 41.2992 65.5831 42.3327C71.8802 44.5889 82.6878 46.5618 93.308 47.5021C103.27 48.4415 118.214 51.2615 124.604 53.5168C133.814 56.7124 141.239 60.3776 141.239 61.6935C141.239 63.4791 141.145 63.4791 131.747 59.7197C121.033 55.3965 110.976 52.8588 99.8865 51.7312C77.331 49.2877 72.5382 48.5356 63.7034 45.9979C44.0612 40.1716 21.2233 41.7689 1.86349 50.3212C0.359312 50.885 0.171034 50.6977 0.453451 48.9122C0.923121 45.34 19.5319 40.0774 37.8583 38.2919C39.6438 38.1036 41.3353 37.9163 41.6177 37.8222C41.9001 37.7281 46.1292 38.2919 51.0162 39.044Z" fill="#4A6B9A"/>
<path fill-rule="evenodd" clip-rule="evenodd" d="M53.3656 31.431C55.5267 31.7134 61.1658 33.2166 66.0528 34.7207C71.4106 36.4122 80.9022 38.2919 89.8311 39.5136C107.969 41.863 115.676 43.4613 123.476 46.3745C132.875 49.9456 141.239 54.4571 141.239 55.9603C141.239 57.7459 139.453 57.7459 137.574 56.0544C135.507 54.2689 120.469 48.4415 113.514 46.75C106.466 44.9645 97.5371 43.6486 85.0382 42.3327C79.7746 41.863 69.625 39.8892 62.4817 38.0095C50.3583 34.8149 48.9482 34.6266 38.7986 35.0963C27.5204 35.566 18.0277 37.6339 7.03191 42.0513C3.74217 43.3672 0.828982 44.1183 0.547589 43.8369C-2.45974 40.8295 20.0016 32.5586 35.2265 31.1496C42.8394 30.3975 45.6585 30.4917 53.3656 31.431Z" fill="#4A6B9A"/>
<path fill-rule="evenodd" clip-rule="evenodd" d="M54.7756 24.1005C56.5612 24.3819 62.1062 25.7919 66.9932 27.2961C71.8802 28.7051 81.6543 30.6789 88.6093 31.5251C95.5633 32.3714 105.15 34.0628 109.849 35.2846C124.51 39.044 141.239 47.0325 141.239 50.3212C141.239 52.2009 140.111 52.1067 137.386 49.9456C128.458 42.9906 107.499 36.8818 85.1313 34.7207C79.8687 34.25 72.0685 32.841 67.7453 31.6193C51.1103 26.8264 40.9597 26.0743 28.2725 28.7051C20.9419 30.2092 6.65638 35.1904 3.55492 37.2584C1.01726 39.044 0.265175 38.8557 0.265175 36.6946C0.265175 35.6601 1.01726 34.5325 1.9566 34.25C2.80283 33.8745 6.93777 32.2772 11.0737 30.4917C27.3321 23.7249 39.9262 21.8452 54.7756 24.1005Z" fill="#4A6B9A"/>
<path fill-rule="evenodd" clip-rule="evenodd" d="M66.9932 19.4017C73.4775 21.0931 81.9367 22.9728 85.7892 23.5367C109.943 26.9195 120.939 30.3975 137.198 40.0774C140.206 41.7689 141.803 44.0251 140.769 44.9645C140.581 45.2469 137.856 43.931 134.943 42.1454C121.315 33.8745 108.44 29.8337 87.6689 27.2961C82.7819 26.7323 72.444 24.7584 64.6438 22.8787C51.8614 19.8714 49.7003 19.589 41.148 20.0597C27.7087 20.8107 11.8248 25.5105 3.93045 31.1496C0.734846 33.4048 0.265175 33.4048 0.265175 31.1496C0.265175 28.9875 13.8928 22.0325 24.2307 18.931C39.3624 14.3264 48.9482 14.4205 66.9932 19.4017Z" fill="#4A6B9A"/>
<path fill-rule="evenodd" clip-rule="evenodd" d="M55.057 8.87556C57.5947 9.15696 63.0455 10.4729 67.2746 11.6946C71.5037 13.0105 81.5601 15.0785 89.5486 16.4875C112.011 20.2469 120.375 23.1601 134.755 32.4645C141.427 36.7877 142.649 38.0095 141.71 39.5136C141.333 40.0774 140.017 39.6078 138.42 38.1977C127.988 29.4572 108.44 22.409 85.7892 19.3076C79.8687 18.5555 70.9399 16.7699 66.0528 15.454C44.8133 9.8149 27.5204 11.977 7.97228 22.6904C4.11873 24.7584 0.828989 26.2616 0.547596 25.9802C-0.862439 24.6643 1.86349 22.5032 11.1669 17.7093C22.0696 12.0701 29.1177 9.72077 38.2338 8.59315C43.7788 7.84106 45.6585 7.84106 55.057 8.87556Z" fill="#4A6B9A"/>
<path fill-rule="evenodd" clip-rule="evenodd" d="M59.4744 0.980189C61.2599 1.45088 65.7714 2.85989 69.4367 4.08165C73.1961 5.39755 81.3718 7.27725 87.7631 8.40487C107.594 11.8829 119.717 16.0178 131.089 23.2542C137.292 27.2961 142.179 31.431 142.179 32.6528C142.179 34.7207 140.3 34.0628 136.352 30.5848C127.706 23.2542 110.883 16.2061 94.7181 13.1988C73.2902 9.2511 65.3949 7.65381 59.4744 6.14963C51.2976 3.98854 36.261 4.64648 27.0507 7.55967C19.626 9.90904 11.1669 13.9498 5.24634 17.9917C0.640707 21.1873 0.265175 21.2814 0.265175 19.0252C0.265175 16.7699 12.0131 9.06282 21.4116 5.11615C32.0319 0.698796 50.7338 -1.36919 59.4744 0.980189Z" fill="#4A6B9A"/>
<path fill-rule="evenodd" clip-rule="evenodd" d="M47.9147 69.1182C52.7076 69.8703 61.1658 72.0314 66.7108 73.9111C76.2976 77.1067 77.7066 77.295 98.3833 78.5168C110.318 79.2678 123.288 80.4896 127.142 81.4299C130.995 82.2762 135.882 83.2155 137.95 83.591C140.863 84.0617 141.71 84.5314 141.71 85.9414C141.71 87.727 140.205 87.8212 71.5036 88.0084C23.761 88.1025 1.01726 87.9143 0.640705 87.2563C0.0768962 86.4111 -0.204497 75.9791 0.171035 71.6559C0.265174 70.9979 1.67521 70.5283 3.83631 70.5283C5.71601 70.4341 10.8855 69.8703 15.3028 69.2124C26.1104 67.4268 37.4827 67.4268 47.9147 69.1182Z" fill="#4A6B9A"/>
<path fill-rule="evenodd" clip-rule="evenodd" d="M46.7871 61.2239C51.4859 61.7877 59.0988 63.4791 63.7035 64.9833C75.3572 68.8358 79.2108 69.4938 97.0675 70.5283C119.247 71.8431 140.769 76.4488 140.769 79.9258C140.769 80.6779 140.111 81.1475 139.359 80.9603C138.608 80.772 135.224 79.8316 131.841 78.8923C123.288 76.4488 108.627 74.4749 90.489 73.3473C81.9367 72.8776 72.9137 71.8431 70.2819 71.0921C67.7453 70.34 62.5758 68.8358 58.9106 67.8023C55.1511 66.7689 48.6668 65.5471 44.3436 65.1705C35.6972 64.3253 14.739 65.1705 9.00575 66.5806C0.359314 68.7417 0.265175 68.8358 0.265175 66.9561C0.265175 65.453 1.86349 64.8891 11.3551 63.1036C27.4263 60.1894 34.7568 59.7197 46.7871 61.2239Z" fill="#4A6B9A"/>
<path fill-rule="evenodd" clip-rule="evenodd" d="M50.5465 54.0806C53.1773 54.363 59.944 56.0544 65.5832 57.84C74.1355 60.5659 78.6469 61.4111 91.4283 62.5398C111.823 64.3253 118.495 65.2647 128.082 68.0848C139.359 71.3735 141.239 72.1256 141.239 73.817C141.239 75.6026 140.769 75.6026 134.097 73.2532C123.853 69.682 112.669 67.7082 94.0601 66.2982C78.1773 64.9833 73.7599 64.3253 63.9859 61.4111C53.5539 58.4038 51.0162 58.0283 38.3279 57.6517C26.2045 57.2762 22.9148 57.4645 14.8321 59.25C-0.110355 62.5398 0.0768987 62.5398 0.453454 60.6601C0.640708 59.3442 2.89697 58.4038 9.6637 56.8065C24.6072 53.1413 33.7233 52.4833 50.5465 54.0806Z" fill="#4A6B9A"/>
<path fill-rule="evenodd" clip-rule="evenodd" d="M56.1846 47.5021C58.8164 48.1601 64.5497 49.7574 68.967 51.0733C73.3834 52.3892 82.0298 53.8933 88.2327 54.5513C94.3415 55.1151 102.801 56.0544 106.936 56.5241C123.665 58.7804 143.965 66.2051 141.052 69.1182C140.863 69.3065 136.916 68.0848 132.311 66.2982C121.221 62.1632 107.405 59.5314 90.489 58.3097C75.7338 57.2762 74.7934 57.0879 61.3541 53.0471C53.0832 50.5095 51.3917 50.3212 37.3886 50.4153C22.4451 50.5095 17.6522 51.2615 2.23902 56.0544C0.453452 56.6182 0.171036 56.43 0.453452 54.9268C0.923122 52.295 20.0957 46.8442 32.6888 45.8107C38.6103 45.34 51.6741 46.2804 56.1846 47.5021Z" fill="#4A6B9A"/>
<path fill-rule="evenodd" clip-rule="evenodd" d="M51.0162 39.044C55.9032 39.795 62.4817 41.2992 65.5831 42.3327C71.8802 44.5889 82.6878 46.5618 93.308 47.5021C103.27 48.4415 118.214 51.2615 124.604 53.5168C133.814 56.7124 141.239 60.3776 141.239 61.6935C141.239 63.4791 141.145 63.4791 131.747 59.7197C121.033 55.3965 110.976 52.8588 99.8865 51.7312C77.331 49.2877 72.5382 48.5356 63.7034 45.9979C44.0612 40.1716 21.2233 41.7689 1.86349 50.3212C0.359312 50.885 0.171034 50.6977 0.453451 48.9122C0.923121 45.34 19.5319 40.0774 37.8583 38.2919C39.6438 38.1036 41.3353 37.9163 41.6177 37.8222C41.9001 37.7281 46.1292 38.2919 51.0162 39.044Z" fill="#4A6B9A"/>
<path fill-rule="evenodd" clip-rule="evenodd" d="M53.3656 31.431C55.5267 31.7134 61.1658 33.2166 66.0528 34.7207C71.4106 36.4122 80.9022 38.2919 89.8311 39.5136C107.969 41.863 115.676 43.4613 123.476 46.3745C132.875 49.9456 141.239 54.4571 141.239 55.9603C141.239 57.7459 139.453 57.7459 137.574 56.0544C135.507 54.2689 120.469 48.4415 113.514 46.75C106.466 44.9645 97.5371 43.6486 85.0382 42.3327C79.7746 41.863 69.625 39.8892 62.4817 38.0095C50.3583 34.8149 48.9482 34.6266 38.7986 35.0963C27.5204 35.566 18.0277 37.6339 7.03191 42.0513C3.74217 43.3672 0.828982 44.1183 0.547589 43.8369C-2.45974 40.8295 20.0016 32.5586 35.2265 31.1496C42.8394 30.3975 45.6585 30.4917 53.3656 31.431Z" fill="#4A6B9A"/>
<path fill-rule="evenodd" clip-rule="evenodd" d="M54.7756 24.1005C56.5612 24.3819 62.1062 25.7919 66.9932 27.2961C71.8802 28.7051 81.6543 30.6789 88.6093 31.5251C95.5633 32.3714 105.15 34.0628 109.849 35.2846C124.51 39.044 141.239 47.0325 141.239 50.3212C141.239 52.2009 140.111 52.1067 137.386 49.9456C128.458 42.9906 107.499 36.8818 85.1313 34.7207C79.8687 34.25 72.0685 32.841 67.7453 31.6193C51.1103 26.8264 40.9597 26.0743 28.2725 28.7051C20.9419 30.2092 6.65638 35.1904 3.55492 37.2584C1.01726 39.044 0.265175 38.8557 0.265175 36.6946C0.265175 35.6601 1.01726 34.5325 1.9566 34.25C2.80283 33.8745 6.93777 32.2772 11.0737 30.4917C27.3321 23.7249 39.9262 21.8452 54.7756 24.1005Z" fill="#4A6B9A"/>
<path fill-rule="evenodd" clip-rule="evenodd" d="M66.9932 19.4017C73.4775 21.0931 81.9367 22.9728 85.7892 23.5367C109.943 26.9195 120.939 30.3975 137.198 40.0774C140.206 41.7689 141.803 44.0251 140.769 44.9645C140.581 45.2469 137.856 43.931 134.943 42.1454C121.315 33.8745 108.44 29.8337 87.6689 27.2961C82.7819 26.7323 72.444 24.7584 64.6438 22.8787C51.8614 19.8714 49.7003 19.589 41.148 20.0597C27.7087 20.8107 11.8248 25.5105 3.93045 31.1496C0.734846 33.4048 0.265175 33.4048 0.265175 31.1496C0.265175 28.9875 13.8928 22.0325 24.2307 18.931C39.3624 14.3264 48.9482 14.4205 66.9932 19.4017Z" fill="#4A6B9A"/>
<path fill-rule="evenodd" clip-rule="evenodd" d="M55.057 8.87556C57.5947 9.15696 63.0455 10.4729 67.2746 11.6946C71.5037 13.0105 81.5601 15.0785 89.5486 16.4875C112.011 20.2469 120.375 23.1601 134.755 32.4645C141.427 36.7877 142.649 38.0095 141.71 39.5136C141.333 40.0774 140.017 39.6078 138.42 38.1977C127.988 29.4572 108.44 22.409 85.7892 19.3076C79.8687 18.5555 70.9399 16.7699 66.0528 15.454C44.8133 9.8149 27.5204 11.977 7.97228 22.6904C4.11873 24.7584 0.828989 26.2616 0.547596 25.9802C-0.862439 24.6643 1.86349 22.5032 11.1669 17.7093C22.0696 12.0701 29.1177 9.72077 38.2338 8.59315C43.7788 7.84106 45.6585 7.84106 55.057 8.87556Z" fill="#4A6B9A"/>
<path fill-rule="evenodd" clip-rule="evenodd" d="M59.4744 0.980189C61.2599 1.45088 65.7714 2.85989 69.4367 4.08165C73.1961 5.39755 81.3718 7.27725 87.7631 8.40487C107.594 11.8829 119.717 16.0178 131.089 23.2542C137.292 27.2961 142.179 31.431 142.179 32.6528C142.179 34.7207 140.3 34.0628 136.352 30.5848C127.706 23.2542 110.883 16.2061 94.7181 13.1988C73.2902 9.2511 65.3949 7.65381 59.4744 6.14963C51.2976 3.98854 36.261 4.64648 27.0507 7.55967C19.626 9.90904 11.1669 13.9498 5.24634 17.9917C0.640707 21.1873 0.265175 21.2814 0.265175 19.0252C0.265175 16.7699 12.0131 9.06282 21.4116 5.11615C32.0319 0.698796 50.7338 -1.36919 59.4744 0.980189Z" fill="#4A6B9A"/>
</svg>
